<svg aria-hidden="true" style="position: absolute; width: 0; height: 0; overflow: hidden;" version="1.1" xmlns="http://www.w3.org/2000/svg" xmlns:xlink="http://www.w3.org/1999/xlink">
<defs>
<symbol id="icon-logo" viewBox="0 0 83 32">
<path fill="#fff" style="fill: var(--color1, #fff)" d="M36.286 12.679l-0.68-1.958h-4.138l-0.68 1.958h-1.736l3.527-9.721h1.916l3.513 9.721h-1.722zM31.995 9.221h3.083l-1.541-4.388-1.541 4.388z"></path>
<path fill="#fff" style="fill: var(--color1, #fff)" d="M42.872 2.958c1.333 0 2.439 0.468 3.319 1.403 0.889 0.935 1.333 2.088 1.333 3.458 0 1.361-0.444 2.514-1.333 3.458-0.88 0.935-1.986 1.403-3.319 1.403h-3.819v-9.721h3.819zM42.872 11.152c0.917 0 1.662-0.315 2.236-0.944 0.583-0.63 0.875-1.426 0.875-2.389 0-0.972-0.292-1.768-0.875-2.389-0.574-0.63-1.319-0.944-2.236-0.944h-2.222v6.666h2.222z"></path>
<path fill="#fff" style="fill: var(--color1, #fff)" d="M50.577 11.152h4.305v1.528h-5.902v-9.721h5.832v1.528h-4.235v2.527h3.888v1.514h-3.888v2.625z"></path>
<path fill="#fff" style="fill: var(--color1, #fff)" d="M63.495 12.679h-1.819l-2.139-3.513-2.139 3.513h-1.819l3.055-4.999-2.875-4.721h1.805l1.972 3.236 1.972-3.236h1.819l-2.875 4.722 3.041 4.999z"></path>
<path fill="#fff" style="fill: var(--color1, #fff)" d="M34.55 28.558c-1.463 0-2.675-0.481-3.638-1.444-0.963-0.972-1.444-2.171-1.444-3.597s0.481-2.62 1.444-3.583c0.963-0.972 2.176-1.458 3.638-1.458 0.88 0 1.69 0.208 2.43 0.625 0.75 0.417 1.333 0.981 1.75 1.694l-1.389 0.805c-0.259-0.481-0.639-0.861-1.139-1.139-0.491-0.287-1.041-0.43-1.653-0.43-1.037 0-1.879 0.329-2.527 0.986-0.639 0.657-0.958 1.491-0.958 2.5s0.319 1.842 0.958 2.5c0.648 0.657 1.491 0.986 2.527 0.986 0.611 0 1.166-0.139 1.666-0.417 0.5-0.287 0.875-0.671 1.125-1.153l1.389 0.792c-0.407 0.713-0.986 1.282-1.736 1.708-0.741 0.417-1.555 0.625-2.444 0.625z"></path>
<path fill="#fff" style="fill: var(--color1, #fff)" d="M46.321 28.377l-0.68-1.958h-4.138l-0.68 1.958h-1.736l3.527-9.721h1.916l3.513 9.721h-1.722zM42.030 24.92h3.083l-1.541-4.388-1.541 4.388z"></path>
<path fill="#fff" style="fill: var(--color1, #fff)" d="M52.671 18.657c0.917 0 1.68 0.305 2.291 0.917 0.62 0.611 0.93 1.37 0.93 2.277 0 0.898-0.31 1.657-0.93 2.277-0.611 0.611-1.375 0.917-2.291 0.917h-1.986v3.333h-1.597v-9.721h3.583zM52.671 23.545c0.472 0 0.861-0.157 1.166-0.472 0.306-0.324 0.458-0.731 0.458-1.222s-0.153-0.893-0.458-1.208c-0.306-0.324-0.694-0.486-1.166-0.486h-1.986v3.388h1.986z"></path>
<path fill="#fff" style="fill: var(--color1, #fff)" d="M57.279 18.657h1.597v9.721h-1.597v-9.721z"></path>
<path fill="#fff" style="fill: var(--color1, #fff)" d="M67.137 18.657v1.528h-2.736v8.193h-1.597v-8.193h-2.75v-1.528h7.082z"></path>
<path fill="#fff" style="fill: var(--color1, #fff)" d="M73.959 28.377l-0.68-1.958h-4.138l-0.68 1.958h-1.736l3.527-9.721h1.916l3.513 9.721h-1.722zM69.668 24.92h3.083l-1.541-4.388-1.541 4.388z"></path>
<path fill="#fff" style="fill: var(--color1, #fff)" d="M78.323 26.85h3.958v1.528h-5.555v-9.721h1.597v8.193z"></path>
<path fill="#535fe6" style="fill: var(--color2, #535fe6)" d="M0.612 19.924c-0.338 0-0.614-0.275-0.591-0.612 0.323-4.665 4.311-8.351 9.184-8.351h10.116v4.925h-10.116c-2.078 0-3.799 1.488-4.101 3.429-0.052 0.334-0.321 0.609-0.659 0.609h-3.834z"></path>
<path fill="#4452ee" style="fill: var(--color3, #4452ee)" d="M0 19.134c0-6.824 5.661-12.355 12.644-12.355h6.676v4.942h-6.676c-4.19 0-7.587 3.319-7.587 7.413v0.179c0 0.338-0.274 0.612-0.612 0.612h-3.834c-0.338 0-0.612-0.274-0.612-0.612v-0.179z"></path>
<path fill="#1b1a1a" style="fill: var(--color4, #1b1a1a)" d="M0 18.297c0-7.022 5.661-12.714 12.644-12.714h6.676v5.086h-6.676c-4.19 0-7.587 3.415-7.587 7.628v1.016c0 0.338-0.274 0.612-0.612 0.612h-3.834c-0.338 0-0.612-0.274-0.612-0.612v-1.016z"></path>
<path fill="#0f828c" style="fill: var(--color5, #0f828c)" d="M0 14.049c0-6.875 5.661-12.449 12.644-12.449h6.676v4.98h-6.676c-4.19 0-7.587 3.344-7.587 7.469v5.264c0 0.338-0.274 0.612-0.612 0.612h-3.834c-0.338 0-0.612-0.274-0.612-0.612v-5.264z"></path>
<path fill="#20c1cf" style="fill: var(--color6, #20c1cf)" d="M0 13.248c0-6.983 5.661-12.644 12.644-12.644h6.065c0.338 0 0.612 0.274 0.612 0.612v4.446h-6.676c-4.19 0-7.587 3.397-7.587 7.587v6.065c0 0.338-0.274 0.612-0.612 0.612h-3.834c-0.338 0-0.612-0.274-0.612-0.612v-6.065z"></path>
<path fill="#535fe6" style="fill: var(--color2, #535fe6)" d="M14.953 19.925c-0.338 0-0.612-0.274-0.612-0.612v-18.709h4.368c0.338 0 0.612 0.274 0.612 0.612v18.097c0 0.338-0.274 0.612-0.612 0.612h-3.756z"></path>
</symbol>
<symbol id="icon-menu" viewBox="0 0 32 32">
<path fill="#fff" style="fill: var(--color1, #fff)" d="M2.662 7.997c0-0.736 0.597-1.333 1.333-1.333h24.010c0.736 0 1.333 0.597 1.333 1.333s-0.597 1.333-1.333 1.333h-24.010c-0.736 0-1.333-0.597-1.333-1.333z"></path>
<path fill="#fff" style="fill: var(--color1, #fff)" d="M2.662 16c0-0.736 0.597-1.333 1.333-1.333h18.674c0.736 0 1.333 0.597 1.333 1.333s-0.597 1.333-1.333 1.333h-18.674c-0.736 0-1.333-0.597-1.333-1.333z"></path>
<path fill="#fff" style="fill: var(--color1, #fff)" d="M2.662 24.003c0-0.736 0.597-1.333 1.333-1.333h13.339c0.736 0 1.333 0.597 1.333 1.333s-0.597 1.333-1.333 1.333h-13.339c-0.736 0-1.333-0.597-1.333-1.333z"></path>
</symbol>
<symbol id="icon-telegram" viewBox="0 0 32 32">
<path fill="#fff" style="fill: var(--color1, #fff)" d="M14.164 18.262l-0.282 3.971c0.404 0 0.579-0.173 0.789-0.382l1.894-1.81 3.924 2.874c0.72 0.401 1.227 0.19 1.421-0.662l2.576-12.070c0.228-1.064-0.385-1.48-1.086-1.219l-15.14 5.796c-1.033 0.401-1.018 0.977-0.176 1.238l3.871 1.204 8.991-5.626c0.423-0.28 0.808-0.125 0.491 0.155l-7.273 6.53z"></path>
</symbol>
<symbol id="icon-facebook" viewBox="0 0 32 32">
<path fill="#fff" style="fill: var(--color1, #fff)" d="M21.333 5.338l-2.767-0.004c-3.108 0-5.117 2.061-5.117 5.25v2.421h-2.782c-0.24 0-0.435 0.195-0.435 0.435v3.507c0 0.24 0.195 0.435 0.435 0.435h2.782v8.85c0 0.24 0.195 0.435 0.435 0.435h3.629c0.24 0 0.435-0.195 0.435-0.435v-8.85h3.252c0.24 0 0.435-0.195 0.435-0.435l0.001-3.507c0-0.115-0.046-0.226-0.127-0.308s-0.192-0.128-0.308-0.128h-3.253v-2.052c0-0.986 0.235-1.487 1.52-1.487l1.864-0.001c0.24 0 0.435-0.195 0.435-0.435v-3.257c0-0.24-0.194-0.435-0.434-0.435z"></path>
</symbol>
<symbol id="icon-twitter" viewBox="0 0 32 32">
<path fill="#fff" style="fill: var(--color1, #fff)" d="M25.333 10.212c-0.694 0.305-1.434 0.506-2.205 0.604 0.793-0.474 1.399-1.218 1.684-2.115-0.74 0.441-1.556 0.752-2.427 0.926-0.702-0.748-1.703-1.211-2.795-1.211-2.119 0-3.824 1.72-3.824 3.828 0 0.303 0.026 0.595 0.089 0.873-3.181-0.155-5.997-1.68-7.888-4.003-0.33 0.573-0.524 1.229-0.524 1.934 0 1.325 0.683 2.5 1.7 3.18-0.615-0.012-1.218-0.19-1.729-0.471 0 0.012 0 0.027 0 0.042 0 1.86 1.327 3.404 3.066 3.76-0.312 0.085-0.651 0.126-1.003 0.126-0.245 0-0.492-0.014-0.725-0.065 0.496 1.515 1.903 2.63 3.576 2.666-1.302 1.018-2.955 1.632-4.745 1.632-0.314 0-0.615-0.014-0.916-0.053 1.695 1.093 3.704 1.717 5.871 1.717 7.042 0 10.892-5.833 10.892-10.89 0-0.169-0.006-0.332-0.014-0.495 0.759-0.539 1.398-1.212 1.918-1.987z"></path>
</symbol>
<symbol id="icon-youtube" viewBox="0 0 32 32">
<path fill="#fff" style="fill: var(--color1, #fff)" d="M25.588 11.19c-0.23-0.857-0.906-1.532-1.763-1.763-1.565-0.428-7.825-0.428-7.825-0.428s-6.26 0-7.825 0.412c-0.84 0.23-1.532 0.922-1.763 1.779-0.412 1.565-0.412 4.81-0.412 4.81s0 3.262 0.412 4.81c0.231 0.857 0.906 1.532 1.763 1.763 1.581 0.428 7.825 0.428 7.825 0.428s6.26 0 7.825-0.412c0.857-0.231 1.532-0.906 1.763-1.763 0.412-1.565 0.412-4.811 0.412-4.811s0.017-3.262-0.412-4.827zM14.007 18.998v-5.997l5.206 2.998-5.206 2.998z"></path>
</symbol>
<symbol id="icon-united-kingdom" viewBox="0 0 32 32">
<path fill="#4a7aff" style="fill: var(--color1, #4a7aff)" d="M4.813 9h22.375v14h-22.375v-14z"></path>
<path fill="#0053bf" style="fill: var(--color2, #0053bf)" d="M15.975 9h11.213v14h-11.213v-14z"></path>
<path fill="#fa5d0f" style="fill: var(--color3, #fa5d0f)" d="M27.187 9h-2.71l-8.477 5.304-8.477-5.304h-2.71v1.696l8.478 5.304-8.478 5.304v1.696h2.71l8.477-5.304 8.477 5.304h2.71v-1.696l-8.477-5.304 8.477-5.304v-1.696z"></path>
<path fill="#d13400" style="fill: var(--color4, #d13400)" d="M27.188 9h-2.71l-8.477 5.304-0.025-0.016v3.423l0.025-0.016 8.477 5.304h2.71v-1.696l-8.477-5.304 8.477-5.304v-1.696z"></path>
<path fill="#fa5d0f" style="fill: var(--color3, #fa5d0f)" d="M27.187 14.25h-9.437v-5.25h-3.5v5.25h-9.438v3.5h9.438v5.25h3.5v-5.25h9.437v-3.5z"></path>
<path fill="#d13400" style="fill: var(--color4, #d13400)" d="M17.751 14.25v-5.25h-1.775v14h1.775v-5.25h9.438v-3.5h-9.438z"></path>
<path fill="#fff" style="fill: var(--color5, #fff)" d="M13.75 9v3.307l-5.285-3.307h-1.885l7.17 4.486v0.264h-3.113l-5.824-3.644v1.18l3.939 2.464h-3.939v1h9.938v-5.75h-1z"></path>
<path fill="#fff" style="fill: var(--color5, #fff)" d="M4.813 18.25h3.939l-3.939 2.465v1.18l5.824-3.644h3.113v0.264l-7.17 4.486h1.885l5.285-3.307v3.307h1v-5.75h-9.938v1z"></path>
<path fill="#e9edf5" style="fill: var(--color6, #e9edf5)" d="M27.187 10.106l-5.824 3.644h-3.114v-0.264l7.17-4.486h-1.885l-5.285 3.307v-3.307h-1v5.75h9.937v-1h-3.939l3.939-2.464v-1.18z"></path>
<path fill="#e9edf5" style="fill: var(--color6, #e9edf5)" d="M17.25 23h1v-3.307l5.285 3.307h1.885l-7.17-4.486v-0.264h3.113l5.824 3.644v-1.18l-3.939-2.464h3.939v-1h-9.937v5.75z"></path>
</symbol>
<symbol id="icon-brand-element" viewBox="0 0 32 32">
<path fill="#20c1cf" style="fill: var(--color1, #20c1cf)" d="M0 20.942c0-11.566 9.376-20.942 20.942-20.942h10.044c0.559 0 1.013 0.454 1.013 1.013v7.364h-11.058c-6.94 0-12.565 5.626-12.565 12.565v10.044c0 0.559-0.454 1.013-1.013 1.013h-6.351c-0.56 0-1.013-0.454-1.013-1.013v-10.044z"></path>
</symbol>
</defs>
</svg>
