<svg aria-hidden="true" style="position: absolute; width: 0; height: 0; overflow: hidden;" version="1.1" xmlns="http://www.w3.org/2000/svg" xmlns:xlink="http://www.w3.org/1999/xlink">
<defs>
<symbol id="icon-logo" viewBox="0 0 83 32">
<path fill="#fff" style="fill: var(--color1, #fff)" d="M36.286 12.679l-0.68-1.958h-4.138l-0.68 1.958h-1.736l3.527-9.721h1.916l3.513 9.721h-1.722zM31.995 9.221h3.083l-1.541-4.388-1.541 4.388z"></path>
<path fill="#fff" style="fill: var(--color1, #fff)" d="M42.872 2.958c1.333 0 2.439 0.468 3.319 1.403 0.889 0.935 1.333 2.088 1.333 3.458 0 1.361-0.444 2.514-1.333 3.458-0.88 0.935-1.986 1.403-3.319 1.403h-3.819v-9.721h3.819zM42.872 11.152c0.917 0 1.662-0.315 2.236-0.944 0.583-0.63 0.875-1.426 0.875-2.389 0-0.972-0.292-1.768-0.875-2.389-0.574-0.63-1.319-0.944-2.236-0.944h-2.222v6.666h2.222z"></path>
<path fill="#fff" style="fill: var(--color1, #fff)" d="M50.577 11.152h4.305v1.528h-5.902v-9.721h5.832v1.528h-4.235v2.527h3.888v1.514h-3.888v2.625z"></path>
<path fill="#fff" style="fill: var(--color1, #fff)" d="M63.495 12.679h-1.819l-2.139-3.513-2.139 3.513h-1.819l3.055-4.999-2.875-4.721h1.805l1.972 3.236 1.972-3.236h1.819l-2.875 4.722 3.041 4.999z"></path>
<path fill="#fff" style="fill: var(--color1, #fff)" d="M34.55 28.558c-1.463 0-2.675-0.481-3.638-1.444-0.963-0.972-1.444-2.171-1.444-3.597s0.481-2.62 1.444-3.583c0.963-0.972 2.176-1.458 3.638-1.458 0.88 0 1.69 0.208 2.43 0.625 0.75 0.417 1.333 0.981 1.75 1.694l-1.389 0.805c-0.259-0.481-0.639-0.861-1.139-1.139-0.491-0.287-1.041-0.43-1.653-0.43-1.037 0-1.879 0.329-2.527 0.986-0.639 0.657-0.958 1.491-0.958 2.5s0.319 1.842 0.958 2.5c0.648 0.657 1.491 0.986 2.527 0.986 0.611 0 1.166-0.139 1.666-0.417 0.5-0.287 0.875-0.671 1.125-1.153l1.389 0.792c-0.407 0.713-0.986 1.282-1.736 1.708-0.741 0.417-1.555 0.625-2.444 0.625z"></path>
<path fill="#fff" style="fill: var(--color1, #fff)" d="M46.321 28.377l-0.68-1.958h-4.138l-0.68 1.958h-1.736l3.527-9.721h1.916l3.513 9.721h-1.722zM42.030 24.92h3.083l-1.541-4.388-1.541 4.388z"></path>
<path fill="#fff" style="fill: var(--color1, #fff)" d="M52.671 18.657c0.917 0 1.68 0.305 2.291 0.917 0.62 0.611 0.93 1.37 0.93 2.277 0 0.898-0.31 1.657-0.93 2.277-0.611 0.611-1.375 0.917-2.291 0.917h-1.986v3.333h-1.597v-9.721h3.583zM52.671 23.545c0.472 0 0.861-0.157 1.166-0.472 0.306-0.324 0.458-0.731 0.458-1.222s-0.153-0.893-0.458-1.208c-0.306-0.324-0.694-0.486-1.166-0.486h-1.986v3.388h1.986z"></path>
<path fill="#fff" style="fill: var(--color1, #fff)" d="M57.279 18.657h1.597v9.721h-1.597v-9.721z"></path>
<path fill="#fff" style="fill: var(--color1, #fff)" d="M67.137 18.657v1.528h-2.736v8.193h-1.597v-8.193h-2.75v-1.528h7.082z"></path>
<path fill="#fff" style="fill: var(--color1, #fff)" d="M73.959 28.377l-0.68-1.958h-4.138l-0.68 1.958h-1.736l3.527-9.721h1.916l3.513 9.721h-1.722zM69.668 24.92h3.083l-1.541-4.388-1.541 4.388z"></path>
<path fill="#fff" style="fill: var(--color1, #fff)" d="M78.323 26.85h3.958v1.528h-5.555v-9.721h1.597v8.193z"></path>
<path fill="#535fe6" style="fill: var(--color2, #535fe6)" d="M0.612 19.924c-0.338 0-0.614-0.275-0.591-0.612 0.323-4.665 4.311-8.351 9.184-8.351h10.116v4.925h-10.116c-2.078 0-3.799 1.488-4.101 3.429-0.052 0.334-0.321 0.609-0.659 0.609h-3.834z"></path>
<path fill="#4452ee" style="fill: var(--color3, #4452ee)" d="M0 19.134c0-6.824 5.661-12.355 12.644-12.355h6.676v4.942h-6.676c-4.19 0-7.587 3.319-7.587 7.413v0.179c0 0.338-0.274 0.612-0.612 0.612h-3.834c-0.338 0-0.612-0.274-0.612-0.612v-0.179z"></path>
<path fill="#1b1a1a" style="fill: var(--color4, #1b1a1a)" d="M0 18.297c0-7.022 5.661-12.714 12.644-12.714h6.676v5.086h-6.676c-4.19 0-7.587 3.415-7.587 7.628v1.016c0 0.338-0.274 0.612-0.612 0.612h-3.834c-0.338 0-0.612-0.274-0.612-0.612v-1.016z"></path>
<path fill="#0f828c" style="fill: var(--color5, #0f828c)" d="M0 14.049c0-6.875 5.661-12.449 12.644-12.449h6.676v4.98h-6.676c-4.19 0-7.587 3.344-7.587 7.469v5.264c0 0.338-0.274 0.612-0.612 0.612h-3.834c-0.338 0-0.612-0.274-0.612-0.612v-5.264z"></path>
<path fill="#20c1cf" style="fill: var(--color6, #20c1cf)" d="M0 13.248c0-6.983 5.661-12.644 12.644-12.644h6.065c0.338 0 0.612 0.274 0.612 0.612v4.446h-6.676c-4.19 0-7.587 3.397-7.587 7.587v6.065c0 0.338-0.274 0.612-0.612 0.612h-3.834c-0.338 0-0.612-0.274-0.612-0.612v-6.065z"></path>
<path fill="#535fe6" style="fill: var(--color2, #535fe6)" d="M14.953 19.925c-0.338 0-0.612-0.274-0.612-0.612v-18.709h4.368c0.338 0 0.612 0.274 0.612 0.612v18.097c0 0.338-0.274 0.612-0.612 0.612h-3.756z"></path>
</symbol>
<symbol id="icon-menu" viewBox="0 0 32 32">
<path fill="#fff" style="fill: var(--color1, #fff)" d="M2.662 7.997c0-0.736 0.597-1.333 1.333-1.333h24.010c0.736 0 1.333 0.597 1.333 1.333s-0.597 1.333-1.333 1.333h-24.010c-0.736 0-1.333-0.597-1.333-1.333z"></path>
<path fill="#fff" style="fill: var(--color1, #fff)" d="M2.662 16c0-0.736 0.597-1.333 1.333-1.333h18.674c0.736 0 1.333 0.597 1.333 1.333s-0.597 1.333-1.333 1.333h-18.674c-0.736 0-1.333-0.597-1.333-1.333z"></path>
<path fill="#fff" style="fill: var(--color1, #fff)" d="M2.662 24.003c0-0.736 0.597-1.333 1.333-1.333h13.339c0.736 0 1.333 0.597 1.333 1.333s-0.597 1.333-1.333 1.333h-13.339c-0.736 0-1.333-0.597-1.333-1.333z"></path>
</symbol>
<symbol id="icon-telegram" viewBox="0 0 32 32">
<path fill="#fff" style="fill: var(--color1, #fff)" d="M14.164 18.262l-0.282 3.971c0.404 0 0.579-0.173 0.789-0.382l1.894-1.81 3.924 2.874c0.72 0.401 1.227 0.19 1.421-0.662l2.576-12.070c0.228-1.064-0.385-1.48-1.086-1.219l-15.14 5.796c-1.033 0.401-1.018 0.977-0.176 1.238l3.871 1.204 8.991-5.626c0.423-0.28 0.808-0.125 0.491 0.155l-7.273 6.53z"></path>
</symbol>
<symbol id="icon-facebook" viewBox="0 0 32 32">
<path fill="#fff" style="fill: var(--color1, #fff)" d="M21.333 5.338l-2.767-0.004c-3.108 0-5.117 2.061-5.117 5.25v2.421h-2.782c-0.24 0-0.435 0.195-0.435 0.435v3.507c0 0.24 0.195 0.435 0.435 0.435h2.782v8.85c0 0.24 0.195 0.435 0.435 0.435h3.629c0.24 0 0.435-0.195 0.435-0.435v-8.85h3.252c0.24 0 0.435-0.195 0.435-0.435l0.001-3.507c0-0.115-0.046-0.226-0.127-0.308s-0.192-0.128-0.308-0.128h-3.253v-2.052c0-0.986 0.235-1.487 1.52-1.487l1.864-0.001c0.24 0 0.435-0.195 0.435-0.435v-3.257c0-0.24-0.194-0.435-0.434-0.435z"></path>
</symbol>
<symbol id="icon-twitter" viewBox="0 0 32 32">
<path fill="#fff" style="fill: var(--color1, #fff)" d="M25.333 10.212c-0.694 0.305-1.434 0.506-2.205 0.604 0.793-0.474 1.399-1.218 1.684-2.115-0.74 0.441-1.556 0.752-2.427 0.926-0.702-0.748-1.703-1.211-2.795-1.211-2.119 0-3.824 1.72-3.824 3.828 0 0.303 0.026 0.595 0.089 0.873-3.181-0.155-5.997-1.68-7.888-4.003-0.33 0.573-0.524 1.229-0.524 1.934 0 1.325 0.683 2.5 1.7 3.18-0.615-0.012-1.218-0.19-1.729-0.471 0 0.012 0 0.027 0 0.042 0 1.86 1.327 3.404 3.066 3.76-0.312 0.085-0.651 0.126-1.003 0.126-0.245 0-0.492-0.014-0.725-0.065 0.496 1.515 1.903 2.63 3.576 2.666-1.302 1.018-2.955 1.632-4.745 1.632-0.314 0-0.615-0.014-0.916-0.053 1.695 1.093 3.704 1.717 5.871 1.717 7.042 0 10.892-5.833 10.892-10.89 0-0.169-0.006-0.332-0.014-0.495 0.759-0.539 1.398-1.212 1.918-1.987z"></path>
</symbol>
<symbol id="icon-youtube" viewBox="0 0 32 32">
<path fill="#fff" style="fill: var(--color1, #fff)" d="M25.588 11.19c-0.23-0.857-0.906-1.532-1.763-1.763-1.565-0.428-7.825-0.428-7.825-0.428s-6.26 0-7.825 0.412c-0.84 0.23-1.532 0.922-1.763 1.779-0.412 1.565-0.412 4.81-0.412 4.81s0 3.262 0.412 4.81c0.231 0.857 0.906 1.532 1.763 1.763 1.581 0.428 7.825 0.428 7.825 0.428s6.26 0 7.825-0.412c0.857-0.231 1.532-0.906 1.763-1.763 0.412-1.565 0.412-4.811 0.412-4.811s0.017-3.262-0.412-4.827zM14.007 18.998v-5.997l5.206 2.998-5.206 2.998z"></path>
</symbol>
<symbol id="icon-united-kingdom" viewBox="0 0 32 32">
<path fill="#4a7aff" style="fill: var(--color1, #4a7aff)" d="M4.813 9h22.375v14h-22.375v-14z"></path>
<path fill="#0053bf" style="fill: var(--color2, #0053bf)" d="M15.975 9h11.213v14h-11.213v-14z"></path>
<path fill="#fa5d0f" style="fill: var(--color3, #fa5d0f)" d="M27.187 9h-2.71l-8.477 5.304-8.477-5.304h-2.71v1.696l8.478 5.304-8.478 5.304v1.696h2.71l8.477-5.304 8.477 5.304h2.71v-1.696l-8.477-5.304 8.477-5.304v-1.696z"></path>
<path fill="#d13400" style="fill: var(--color4, #d13400)" d="M27.188 9h-2.71l-8.477 5.304-0.025-0.016v3.423l0.025-0.016 8.477 5.304h2.71v-1.696l-8.477-5.304 8.477-5.304v-1.696z"></path>
<path fill="#fa5d0f" style="fill: var(--color3, #fa5d0f)" d="M27.187 14.25h-9.437v-5.25h-3.5v5.25h-9.438v3.5h9.438v5.25h3.5v-5.25h9.437v-3.5z"></path>
<path fill="#d13400" style="fill: var(--color4, #d13400)" d="M17.751 14.25v-5.25h-1.775v14h1.775v-5.25h9.438v-3.5h-9.438z"></path>
<path fill="#fff" style="fill: var(--color5, #fff)" d="M13.75 9v3.307l-5.285-3.307h-1.885l7.17 4.486v0.264h-3.113l-5.824-3.644v1.18l3.939 2.464h-3.939v1h9.938v-5.75h-1z"></path>
<path fill="#fff" style="fill: var(--color5, #fff)" d="M4.813 18.25h3.939l-3.939 2.465v1.18l5.824-3.644h3.113v0.264l-7.17 4.486h1.885l5.285-3.307v3.307h1v-5.75h-9.938v1z"></path>
<path fill="#e9edf5" style="fill: var(--color6, #e9edf5)" d="M27.187 10.106l-5.824 3.644h-3.114v-0.264l7.17-4.486h-1.885l-5.285 3.307v-3.307h-1v5.75h9.937v-1h-3.939l3.939-2.464v-1.18z"></path>
<path fill="#e9edf5" style="fill: var(--color6, #e9edf5)" d="M17.25 23h1v-3.307l5.285 3.307h1.885l-7.17-4.486v-0.264h3.113l5.824 3.644v-1.18l-3.939-2.464h3.939v-1h-9.937v5.75z"></path>
</symbol>
<symbol id="icon-brand-element" viewBox="0 0 32 32">
<path fill="#20c1cf" style="fill: var(--color1, #20c1cf)" d="M0 20.942c0-11.566 9.376-20.942 20.942-20.942h10.044c0.559 0 1.013 0.454 1.013 1.013v7.364h-11.058c-6.94 0-12.565 5.626-12.565 12.565v10.044c0 0.559-0.454 1.013-1.013 1.013h-6.351c-0.56 0-1.013-0.454-1.013-1.013v-10.044z"></path>
</symbol>
<symbol id="icon-email" viewBox="0 0 32 32">
<path fill="#fff" style="fill: var(--color1, #fff)" d="M15.758 28c-10.78 0-13.091-2.118-13.091-12 0-2.716 0.175-4.845 0.651-6.506 1.221 1.224 2.762 2.696 4.436 4.008 2.374 1.86 5.249 3.589 8.004 3.589s5.63-1.729 8.004-3.589c1.674-1.311 3.215-2.784 4.436-4.008 0.477 1.66 0.651 3.79 0.651 6.506 0 9.882-2.311 12-13.091 12z"></path>
<path fill="#fff" style="fill: var(--color1, #fff)" d="M27.246 7.352c-1.278 1.303-2.974 2.977-4.831 4.432-2.339 1.833-4.701 3.124-6.658 3.124s-4.319-1.292-6.658-3.124c-1.857-1.455-3.552-3.129-4.831-4.432 1.733-2.619 5.144-3.352 11.489-3.352s9.756 0.734 11.489 3.352z"></path>
</symbol>
<symbol id="icon-eye" viewBox="0 0 32 32">
<path fill="#fff" style="fill: var(--color1, #fff)" d="M18.122 13.88c1.17 1.17 1.171 3.072 0 4.246-1.17 1.17-3.072 1.171-4.246-0-1.17-1.17-1.171-3.072 0.001-4.246 1.174-1.173 3.073-1.173 4.245 0zM19.535 12.465c-1.954-1.954-5.119-1.953-7.073 0.001l-0.001 0.001c-1.951 1.954-1.952 5.121 0.001 7.074l0.001 0.001c1.954 1.951 5.121 1.952 7.074-0.001l0.001-0.001c1.951-1.954 1.952-5.121-0-7.073z"></path>
<path fill="#fff" style="fill: var(--color1, #fff)" d="M16 7.667c-4.574 0-8.669 2.467-10.507 6.223v0c-0.326 0.667-0.493 1.386-0.493 2.11s0.167 1.443 0.493 2.11c1.838 3.757 5.934 6.223 10.507 6.223s8.669-2.467 10.507-6.223c0.326-0.667 0.493-1.386 0.493-2.11s-0.167-1.443-0.493-2.11c-1.838-3.757-5.933-6.223-10.507-6.223zM3.696 13.011c2.202-4.502 7.035-7.345 12.304-7.345s10.101 2.843 12.304 7.345c0.458 0.936 0.696 1.956 0.696 2.989s-0.238 2.053-0.696 2.989c-2.202 4.502-7.035 7.345-12.304 7.345s-10.101-2.843-12.304-7.345c-0.458-0.936-0.696-1.956-0.696-2.989s0.238-2.053 0.696-2.989z"></path>
</symbol>
<symbol id="icon-eye-closed" viewBox="0 0 32 32">
<path fill="#fff" style="fill: var(--color1, #fff)" d="M16 7.667c-4.574 0-8.669 2.467-10.507 6.223-0.326 0.667-0.493 1.386-0.493 2.11s0.167 1.443 0.493 2.11c1.838 3.757 5.934 6.223 10.507 6.223s8.669-2.467 10.507-6.223c0.326-0.667 0.493-1.386 0.493-2.11s-0.167-1.443-0.493-2.11c-1.838-3.757-5.933-6.223-10.507-6.223zM3.696 13.011c2.202-4.502 7.035-7.345 12.304-7.345s10.101 2.843 12.304 7.345c0.458 0.936 0.696 1.956 0.696 2.989s-0.238 2.053-0.696 2.989c-2.202 4.502-7.035 7.345-12.304 7.345s-10.101-2.843-12.304-7.345c-0.458-0.936-0.696-1.956-0.696-2.989s0.238-2.053 0.696-2.989z"></path>
</symbol>
<symbol id="icon-pass" viewBox="0 0 32 32">
<path fill="#fff" style="fill: var(--color1, #fff)" d="M13.778 19.333c0 1.227 0.995 2.222 2.222 2.222s2.222-0.995 2.222-2.222c0-1.227-0.995-2.222-2.222-2.222s-2.222 0.995-2.222 2.222z"></path>
<path fill="#fff" style="fill: var(--color1, #fff)" d="M21.321 4.614c1.399 1.243 2.326 3.046 2.444 5.333 4.423 1.044 5.568 3.64 5.568 9.386 0 8.235-2.353 10-13.333 10s-13.333-1.765-13.333-10c0-5.746 1.146-8.342 5.568-9.386 0.117-2.287 1.045-4.090 2.444-5.333 1.478-1.314 3.418-1.947 5.322-1.947s3.843 0.633 5.321 1.947zM16 9.333c-2.149 0-3.968 0.068-5.504 0.238 0.181-1.468 0.816-2.548 1.658-3.297 1.022-0.908 2.415-1.386 3.845-1.386s2.823 0.478 3.845 1.386c0.842 0.749 1.478 1.829 1.658 3.297-1.535-0.171-3.354-0.238-5.504-0.238zM11.556 19.333c0 2.455 1.99 4.444 4.444 4.444s4.444-1.99 4.444-4.444c0-2.455-1.99-4.444-4.444-4.444s-4.444 1.99-4.444 4.444z"></path>
</symbol>
<symbol id="icon-user-added" viewBox="0 0 32 32">
<path fill="#fff" style="fill: var(--color1, #fff)" d="M6.889 9.333c0 3.682 2.985 6.667 6.667 6.667s6.667-2.985 6.667-6.667-2.985-6.667-6.667-6.667c-3.682 0-6.667 2.985-6.667 6.667z"></path>
<path fill="#fff" style="fill: var(--color1, #fff)" d="M1.333 23.778c0 4.575 2.157 5.556 12.222 5.556s12.222-0.981 12.222-5.556c0-4.575-2.157-5.555-12.222-5.555s-12.222 0.981-12.222 5.555z"></path>
<path fill="#fff" style="fill: var(--color1, #fff)" d="M21.333 13.778c0-0.614 0.497-1.111 1.111-1.111h2.222v-2.222c0-0.614 0.497-1.111 1.111-1.111s1.111 0.497 1.111 1.111v2.222h2.222c0.614 0 1.111 0.497 1.111 1.111s-0.497 1.111-1.111 1.111h-2.222v2.222c0 0.614-0.497 1.111-1.111 1.111s-1.111-0.497-1.111-1.111v-2.222h-2.222c-0.614 0-1.111-0.497-1.111-1.111z"></path>
</symbol>
<symbol id="icon-binance-coin" viewBox="0 0 32 32">
<path fill="#f3ba2f" style="fill: var(--color1, #f3ba2f)" d="M13 0h6c7.18 0 13 5.82 13 13v6c0 7.18-5.82 13-13 13h-6c-7.18 0-13-5.82-13-13v-6c0-7.18 5.82-13 13-13z"></path>
<path fill="#f3ba2f" style="fill: var(--color1, #f3ba2f)" d="M16 32c8.837 0 16-7.163 16-16s-7.163-16-16-16c-8.837 0-16 7.163-16 16s7.163 16 16 16z"></path>
<path fill="#fff" style="fill: var(--color2, #fff)" d="M12.116 14.404l3.884-3.884 3.886 3.886 2.26-2.26-6.146-6.146-6.144 6.144 2.26 2.26zM6 16l2.26-2.26 2.26 2.26-2.26 2.26-2.26-2.26zM12.116 17.596l3.884 3.884 3.886-3.886 2.26 2.259-6.146 6.147-6.147-6.147 2.263-2.257zM21.48 16l2.26-2.26 2.26 2.26-2.26 2.26-2.26-2.26zM18.292 15.998h0.002v0.002l-2.294 2.294-2.295-2.294 0.004-0.003 0.596-0.597 1.695-1.694 2.292 2.292z"></path>
</symbol>
<symbol id="icon-bitcoin" viewBox="0 0 32 32">
<path fill="#f7931a" style="fill: var(--color3, #f7931a)" d="M13 0h6c7.18 0 13 5.82 13 13v6c0 7.18-5.82 13-13 13h-6c-7.18 0-13-5.82-13-13v-6c0-7.18 5.82-13 13-13z"></path>
<path fill="#f7931a" style="fill: var(--color3, #f7931a)" d="M16 32c8.837 0 16-7.163 16-16s-7.163-16-16-16c-8.837 0-16 7.163-16 16s7.163 16 16 16z"></path>
<path fill="#fff" style="fill: var(--color2, #fff)" d="M23.189 14.020c0.314-2.096-1.283-3.223-3.465-3.975l0.708-2.84-1.728-0.43-0.69 2.765c-0.454-0.114-0.92-0.22-1.385-0.326l0.695-2.783-1.728-0.431-0.708 2.839c-0.376-0.086-0.746-0.17-1.104-0.26l0.002-0.009-2.384-0.595-0.46 1.846c0 0 1.283 0.294 1.256 0.312 0.7 0.175 0.826 0.638 0.805 1.006l-0.806 3.235c0.048 0.012 0.11 0.030 0.18 0.057l-0.183-0.045-1.13 4.532c-0.086 0.212-0.303 0.531-0.793 0.41 0.018 0.025-1.256-0.313-1.256-0.313l-0.858 1.978 2.25 0.561c0.418 0.105 0.828 0.215 1.231 0.318l-0.715 2.872 1.727 0.43 0.708-2.84c0.472 0.127 0.93 0.245 1.378 0.357l-0.706 2.828 1.728 0.43 0.715-2.866c2.948 0.558 5.164 0.333 6.097-2.333 0.752-2.146-0.037-3.385-1.588-4.192 1.13-0.26 1.98-1.003 2.207-2.538zM19.239 19.558c-0.533 2.147-4.148 0.986-5.32 0.695l0.95-3.805c1.172 0.293 4.929 0.872 4.37 3.11zM19.774 13.989c-0.487 1.953-3.495 0.96-4.47 0.717l0.86-3.45c0.975 0.243 4.118 0.696 3.61 2.733z"></path>
</symbol>
<symbol id="icon-bitcoin-cash" viewBox="0 0 32 32">
<path fill="#8dc351" style="fill: var(--color4, #8dc351)" d="M13 0h6c7.18 0 13 5.82 13 13v6c0 7.18-5.82 13-13 13h-6c-7.18 0-13-5.82-13-13v-6c0-7.18 5.82-13 13-13z"></path>
<path fill="#8dc351" style="fill: var(--color4, #8dc351)" d="M16 32c8.837 0 16-7.163 16-16s-7.163-16-16-16c-8.837 0-16 7.163-16 16s7.163 16 16 16z"></path>
<path fill="#fff" style="fill: var(--color2, #fff)" d="M21.207 10.534c-0.776-1.972-2.722-2.15-4.988-1.71l-0.807-2.813-1.712 0.491 0.786 2.74c-0.45 0.128-0.908 0.27-1.363 0.41l-0.79-2.758-1.711 0.49 0.805 2.813c-0.368 0.114-0.73 0.226-1.085 0.328l-0.003-0.010-2.362 0.677 0.525 1.83c0 0 1.258-0.388 1.243-0.358 0.694-0.199 1.035 0.139 1.2 0.468l0.92 3.204c0.047-0.013 0.11-0.029 0.184-0.040l-0.181 0.052 1.287 4.49c0.032 0.227 0.004 0.612-0.48 0.752 0.027 0.013-1.246 0.356-1.246 0.356l0.247 2.143 2.228-0.64c0.415-0.117 0.825-0.227 1.226-0.34l0.817 2.845 1.71-0.49-0.807-2.815c0.459-0.122 0.916-0.248 1.372-0.38l0.802 2.803 1.713-0.491-0.814-2.84c2.831-0.991 4.638-2.294 4.113-5.070-0.422-2.234-1.724-2.912-3.471-2.836 0.848-0.79 1.213-1.858 0.642-3.3v-0.001zM20.557 17.304c0.61 2.127-3.1 2.929-4.26 3.263l-1.081-3.77c1.16-0.333 4.704-1.71 5.34 0.508l0.001-0.001zM18.235 12.214c0.554 1.935-2.547 2.58-3.514 2.857l-0.98-3.419c0.966-0.277 3.915-1.455 4.494 0.563v-0.001z"></path>
</symbol>
<symbol id="icon-chainlink" viewBox="0 0 32 32">
<path fill="#2a5ada" style="fill: var(--color5, #2a5ada)" d="M13 0h6c7.18 0 13 5.82 13 13v6c0 7.18-5.82 13-13 13h-6c-7.18 0-13-5.82-13-13v-6c0-7.18 5.82-13 13-13z"></path>
<path fill="#2a5ada" style="fill: var(--color5, #2a5ada)" d="M16 32c8.837 0 16-7.163 16-16s-7.163-16-16-16c-8.837 0-16 7.163-16 16s7.163 16 16 16z"></path>
<path fill="#fff" style="fill: var(--color2, #fff)" d="M16 6l-1.799 1.055-6.701 3.945v10l1.799 1.055 6.746 3.945 1.799-1.055 4.857-2.89 1.799-1.055v-10l-1.799-1.055-6.701-3.945zM11.098 18.89v-5.78l4.902-2.89 4.902 2.89v5.78l-4.902 2.89-4.902-2.89z"></path>
</symbol>
<symbol id="icon-dogecoin" viewBox="0 0 32 32">
<path fill="#c3a634" style="fill: var(--color6, #c3a634)" d="M13 0h6c7.18 0 13 5.82 13 13v6c0 7.18-5.82 13-13 13h-6c-7.18 0-13-5.82-13-13v-6c0-7.18 5.82-13 13-13z"></path>
<path fill="#c3a634" style="fill: var(--color6, #c3a634)" d="M16 32c8.837 0 16-7.163 16-16s-7.163-16-16-16c-8.837 0-16 7.163-16 16s7.163 16 16 16z"></path>
<path fill="#fff" style="fill: var(--color2, #fff)" d="M13.248 14.61h4.314v2.286h-4.314v4.818h2.721c1.077 0 1.958-0.145 2.644-0.437 0.686-0.291 1.224-0.694 1.615-1.21 0.4-0.537 0.672-1.157 0.796-1.815 0.145-0.742 0.215-1.496 0.21-2.252 0.005-0.756-0.066-1.51-0.21-2.252-0.124-0.658-0.396-1.278-0.796-1.815-0.391-0.516-0.93-0.919-1.615-1.21-0.686-0.292-1.567-0.437-2.644-0.437h-2.721v4.324zM10.482 16.896h-1.482v-2.285h1.482v-6.611h6.549c1.21 0 2.257 0.21 3.142 0.627 0.885 0.419 1.607 0.99 2.168 1.715 0.56 0.724 0.977 1.572 1.25 2.543s0.409 2.010 0.409 3.115c0.007 1.052-0.131 2.1-0.41 3.115-0.272 0.97-0.689 1.819-1.25 2.543-0.56 0.725-1.282 1.296-2.167 1.715-0.885 0.418-1.933 0.627-3.142 0.627h-6.549v-7.104z"></path>
</symbol>
<symbol id="icon-ethereum" viewBox="0 0 32 32">
<path fill="#627eea" style="fill: var(--color7, #627eea)" d="M13 0h6c7.18 0 13 5.82 13 13v6c0 7.18-5.82 13-13 13h-6c-7.18 0-13-5.82-13-13v-6c0-7.18 5.82-13 13-13z"></path>
<path fill="#627eea" style="fill: var(--color7, #627eea)" d="M16 32c8.837 0 16-7.163 16-16s-7.163-16-16-16c-8.837 0-16 7.163-16 16s7.163 16 16 16z"></path>
<path fill="#fff" style="fill: var(--color2, #fff)" opacity="0.602" d="M16.498 4v8.87l7.497 3.35-7.497-12.22z"></path>
<path fill="#fff" style="fill: var(--color2, #fff)" d="M16.498 4l-7.498 12.22 7.498-3.35v-8.87z"></path>
<path fill="#fff" style="fill: var(--color2, #fff)" opacity="0.602" d="M16.498 21.968v6.027l7.502-10.379-7.502 4.352z"></path>
<path fill="#fff" style="fill: var(--color2, #fff)" d="M16.498 27.995v-6.028l-7.498-4.351 7.498 10.379z"></path>
<path fill="#fff" style="fill: var(--color2, #fff)" opacity="0.2" d="M16.498 20.573l7.497-4.353-7.497-3.348v7.701z"></path>
<path fill="#fff" style="fill: var(--color2, #fff)" opacity="0.602" d="M9 16.22l7.498 4.353v-7.701l-7.498 3.348z"></path>
</symbol>
<symbol id="icon-litecoin" viewBox="0 0 32 32">
<path fill="#bfbbbb" style="fill: var(--color8, #bfbbbb)" d="M13 0h6c7.18 0 13 5.82 13 13v6c0 7.18-5.82 13-13 13h-6c-7.18 0-13-5.82-13-13v-6c0-7.18 5.82-13 13-13z"></path>
<path fill="#bfbbbb" style="fill: var(--color8, #bfbbbb)" d="M16 32c8.837 0 16-7.163 16-16s-7.163-16-16-16c-8.837 0-16 7.163-16 16s7.163 16 16 16z"></path>
<path fill="#fff" style="fill: var(--color2, #fff)" d="M10.427 19.214l-1.427 0.554 0.688-2.759 1.444-0.58 2.081-8.429h5.129l-1.519 6.196 1.41-0.571-0.68 2.75-1.427 0.571-0.848 3.483h7.722l-0.873 3.571h-12.875l1.175-4.786z"></path>
</symbol>
<symbol id="icon-neo" viewBox="0 0 32 32">
<path fill="#58bf00" style="fill: var(--color9, #58bf00)" d="M13 0h6c7.18 0 13 5.82 13 13v6c0 7.18-5.82 13-13 13h-6c-7.18 0-13-5.82-13-13v-6c0-7.18 5.82-13 13-13z"></path>
<path fill="#58bf00" style="fill: var(--color9, #58bf00)" d="M16 32c8.837 0 16-7.163 16-16s-7.163-16-16-16c-8.837 0-16 7.163-16 16s7.163 16 16 16z"></path>
<path fill="#fff" style="fill: var(--color2, #fff)" d="M25 22.58l-6.99-3.258v-7.22l6.99-2.479v12.957zM14.823 26l-6.823-3.179v-12.863l6.823 3.18v12.862zM24.833 9.157l-9.834 3.489-6.73-3.136 9.896-3.51 6.73 3.136-0.063 0.021h0.001z"></path>
</symbol>
<symbol id="icon-tether" viewBox="0 0 32 32">
<path fill="#26a17b" style="fill: var(--color10, #26a17b)" d="M13 0h6c7.18 0 13 5.82 13 13v6c0 7.18-5.82 13-13 13h-6c-7.18 0-13-5.82-13-13v-6c0-7.18 5.82-13 13-13z"></path>
<path fill="#26a17b" style="fill: var(--color10, #26a17b)" d="M16 32c8.837 0 16-7.163 16-16s-7.163-16-16-16c-8.837 0-16 7.163-16 16s7.163 16 16 16z"></path>
<path fill="#fff" style="fill: var(--color2, #fff)" d="M17.922 17.383v-0.002c-0.11 0.008-0.677 0.042-1.942 0.042-1.010 0-1.721-0.030-1.971-0.042v0.003c-3.888-0.171-6.79-0.848-6.79-1.658 0-0.809 2.902-1.486 6.79-1.66v2.644c0.254 0.018 0.982 0.061 1.988 0.061 1.207 0 1.812-0.050 1.925-0.060v-2.643c3.88 0.173 6.775 0.85 6.775 1.658 0 0.81-2.895 1.485-6.775 1.657zM17.922 13.793v-2.366h5.414v-3.608h-14.741v3.608h5.414v2.365c-4.4 0.202-7.709 1.074-7.709 2.118s3.309 1.915 7.709 2.118v7.582h3.913v-7.584c4.393-0.202 7.694-1.073 7.694-2.116s-3.301-1.914-7.694-2.117z"></path>
</symbol>
<symbol id="icon-tron" viewBox="0 0 32 32">
<path fill="#ef0027" style="fill: var(--color11, #ef0027)" d="M13 0h6c7.18 0 13 5.82 13 13v6c0 7.18-5.82 13-13 13h-6c-7.18 0-13-5.82-13-13v-6c0-7.18 5.82-13 13-13z"></path>
<path fill="#ef0027" style="fill: var(--color11, #ef0027)" d="M16 32c8.837 0 16-7.163 16-16s-7.163-16-16-16c-8.837 0-16 7.163-16 16s7.163 16 16 16z"></path>
<path fill="#fff" style="fill: var(--color2, #fff)" d="M21.932 9.913l-14.432-2.656 7.595 19.112 10.583-12.894-3.746-3.562zM21.7 11.083l2.208 2.099-6.038 1.093 3.83-3.192zM16.558 14.056l-6.364-5.278 10.402 1.914-4.038 3.364zM16.105 14.99l-1.038 8.58-5.595-14.083 6.633 5.503zM17.065 15.445l6.687-1.21-7.67 9.343 0.983-8.133z"></path>
</symbol>
<symbol id="icon-logo-img" viewBox="0 0 33 32">
<path fill="#535fe6" style="fill: var(--color1, #535fe6)" d="M2.018 32c-0.746 0-1.357-0.607-1.289-1.35 0.7-7.566 7.231-13.496 15.184-13.496h16.754v8.157h-16.754c-3.322 0-6.093 2.296-6.731 5.347-0.153 0.73-0.743 1.341-1.489 1.341h-5.675z"></path>
<path fill="#4452ee" style="fill: var(--color2, #4452ee)" d="M0.667 30.69c0-11.302 9.376-20.464 20.942-20.464h11.058v8.185h-11.058c-6.94 0-12.565 5.497-12.565 12.278 0 0.723-0.586 1.31-1.31 1.31h-5.758c-0.723 0-1.31-0.586-1.31-1.31z"></path>
<path fill="#1b1a1a" style="fill: var(--color3, #1b1a1a)" d="M0.667 29.305c0-11.63 9.376-21.057 20.942-21.057h11.058v8.423h-11.058c-6.94 0-12.565 5.657-12.565 12.634v1.345c0 0.746-0.605 1.351-1.351 1.351h-5.675c-0.746 0-1.351-0.605-1.351-1.351v-1.345z"></path>
<path fill="#0f828c" style="fill: var(--color4, #0f828c)" d="M0.667 22.268c0-11.387 9.376-20.619 20.942-20.619h11.058v8.247h-11.058c-6.94 0-12.565 5.539-12.565 12.371v8.381c0 0.746-0.605 1.351-1.351 1.351h-5.675c-0.746 0-1.351-0.605-1.351-1.351v-8.381z"></path>
<path fill="#20c1cf" style="fill: var(--color5, #20c1cf)" d="M0.667 20.942c0-11.566 9.376-20.942 20.942-20.942h9.707c0.746 0 1.351 0.605 1.351 1.351v7.026h-11.058c-6.94 0-12.565 5.626-12.565 12.565v9.707c0 0.746-0.605 1.351-1.351 1.351h-5.675c-0.746 0-1.351-0.605-1.351-1.351v-9.707z"></path>
<path fill="#535fe6" style="fill: var(--color1, #535fe6)" d="M25.77 32c-0.746 0-1.351-0.605-1.351-1.351v-30.649h6.897c0.746 0 1.351 0.605 1.351 1.351v29.298c0 0.746-0.605 1.351-1.351 1.351h-5.546z"></path>
</symbol>
<symbol id="icon-arrow-right" viewBox="0 0 32 32">
<path d="M16 0c-13.176 0-16 2.824-16 16s2.824 16 16 16c13.176 0 16-2.824 16-16s-2.824-16-16-16zM14.276 9.724l5.333 5.333c0.521 0.521 0.521 1.365 0 1.886l-5.333 5.333c-0.521 0.521-1.365 0.521-1.886 0s-0.521-1.365 0-1.886l4.391-4.391-4.391-4.391c-0.521-0.521-0.521-1.365 0-1.886s1.365-0.521 1.886 0z"></path>
</symbol>
</defs>
</svg>
