<svg aria-hidden="true" style="position: absolute; width: 0; height: 0; overflow: hidden;" version="1.1" xmlns="http://www.w3.org/2000/svg" xmlns:xlink="http://www.w3.org/1999/xlink">
<defs>
<symbol id="icon-logo" viewBox="0 0 83 32">
<path fill="#fff" style="fill: var(--color1, #fff)" d="M36.286 12.679l-0.68-1.958h-4.138l-0.68 1.958h-1.736l3.527-9.721h1.916l3.513 9.721h-1.722zM31.995 9.221h3.083l-1.541-4.388-1.541 4.388z"></path>
<path fill="#fff" style="fill: var(--color1, #fff)" d="M42.872 2.958c1.333 0 2.439 0.468 3.319 1.403 0.889 0.935 1.333 2.088 1.333 3.458 0 1.361-0.444 2.514-1.333 3.458-0.88 0.935-1.986 1.403-3.319 1.403h-3.819v-9.721h3.819zM42.872 11.152c0.917 0 1.662-0.315 2.236-0.944 0.583-0.63 0.875-1.426 0.875-2.389 0-0.972-0.292-1.768-0.875-2.389-0.574-0.63-1.319-0.944-2.236-0.944h-2.222v6.666h2.222z"></path>
<path fill="#fff" style="fill: var(--color1, #fff)" d="M50.577 11.152h4.305v1.528h-5.902v-9.721h5.832v1.528h-4.235v2.527h3.888v1.514h-3.888v2.625z"></path>
<path fill="#fff" style="fill: var(--color1, #fff)" d="M63.495 12.679h-1.819l-2.139-3.513-2.139 3.513h-1.819l3.055-4.999-2.875-4.721h1.805l1.972 3.236 1.972-3.236h1.819l-2.875 4.722 3.041 4.999z"></path>
<path fill="#fff" style="fill: var(--color1, #fff)" d="M34.55 28.558c-1.463 0-2.675-0.481-3.638-1.444-0.963-0.972-1.444-2.171-1.444-3.597s0.481-2.62 1.444-3.583c0.963-0.972 2.176-1.458 3.638-1.458 0.88 0 1.69 0.208 2.43 0.625 0.75 0.417 1.333 0.981 1.75 1.694l-1.389 0.805c-0.259-0.481-0.639-0.861-1.139-1.139-0.491-0.287-1.041-0.43-1.653-0.43-1.037 0-1.879 0.329-2.527 0.986-0.639 0.657-0.958 1.491-0.958 2.5s0.319 1.842 0.958 2.5c0.648 0.657 1.491 0.986 2.527 0.986 0.611 0 1.166-0.139 1.666-0.417 0.5-0.287 0.875-0.671 1.125-1.153l1.389 0.792c-0.407 0.713-0.986 1.282-1.736 1.708-0.741 0.417-1.555 0.625-2.444 0.625z"></path>
<path fill="#fff" style="fill: var(--color1, #fff)" d="M46.321 28.377l-0.68-1.958h-4.138l-0.68 1.958h-1.736l3.527-9.721h1.916l3.513 9.721h-1.722zM42.030 24.92h3.083l-1.541-4.388-1.541 4.388z"></path>
<path fill="#fff" style="fill: var(--color1, #fff)" d="M52.671 18.657c0.917 0 1.68 0.305 2.291 0.917 0.62 0.611 0.93 1.37 0.93 2.277 0 0.898-0.31 1.657-0.93 2.277-0.611 0.611-1.375 0.917-2.291 0.917h-1.986v3.333h-1.597v-9.721h3.583zM52.671 23.545c0.472 0 0.861-0.157 1.166-0.472 0.306-0.324 0.458-0.731 0.458-1.222s-0.153-0.893-0.458-1.208c-0.306-0.324-0.694-0.486-1.166-0.486h-1.986v3.388h1.986z"></path>
<path fill="#fff" style="fill: var(--color1, #fff)" d="M57.279 18.657h1.597v9.721h-1.597v-9.721z"></path>
<path fill="#fff" style="fill: var(--color1, #fff)" d="M67.137 18.657v1.528h-2.736v8.193h-1.597v-8.193h-2.75v-1.528h7.082z"></path>
<path fill="#fff" style="fill: var(--color1, #fff)" d="M73.959 28.377l-0.68-1.958h-4.138l-0.68 1.958h-1.736l3.527-9.721h1.916l3.513 9.721h-1.722zM69.668 24.92h3.083l-1.541-4.388-1.541 4.388z"></path>
<path fill="#fff" style="fill: var(--color1, #fff)" d="M78.323 26.85h3.958v1.528h-5.555v-9.721h1.597v8.193z"></path>
<path fill="#535fe6" style="fill: var(--color2, #535fe6)" d="M0.612 19.924c-0.338 0-0.614-0.275-0.591-0.612 0.323-4.665 4.311-8.351 9.184-8.351h10.116v4.925h-10.116c-2.078 0-3.799 1.488-4.101 3.429-0.052 0.334-0.321 0.609-0.659 0.609h-3.834z"></path>
<path fill="#4452ee" style="fill: var(--color3, #4452ee)" d="M0 19.134c0-6.824 5.661-12.355 12.644-12.355h6.676v4.942h-6.676c-4.19 0-7.587 3.319-7.587 7.413v0.179c0 0.338-0.274 0.612-0.612 0.612h-3.834c-0.338 0-0.612-0.274-0.612-0.612v-0.179z"></path>
<path fill="#1b1a1a" style="fill: var(--color4, #1b1a1a)" d="M0 18.297c0-7.022 5.661-12.714 12.644-12.714h6.676v5.086h-6.676c-4.19 0-7.587 3.415-7.587 7.628v1.016c0 0.338-0.274 0.612-0.612 0.612h-3.834c-0.338 0-0.612-0.274-0.612-0.612v-1.016z"></path>
<path fill="#0f828c" style="fill: var(--color5, #0f828c)" d="M0 14.049c0-6.875 5.661-12.449 12.644-12.449h6.676v4.98h-6.676c-4.19 0-7.587 3.344-7.587 7.469v5.264c0 0.338-0.274 0.612-0.612 0.612h-3.834c-0.338 0-0.612-0.274-0.612-0.612v-5.264z"></path>
<path fill="#20c1cf" style="fill: var(--color6, #20c1cf)" d="M0 13.248c0-6.983 5.661-12.644 12.644-12.644h6.065c0.338 0 0.612 0.274 0.612 0.612v4.446h-6.676c-4.19 0-7.587 3.397-7.587 7.587v6.065c0 0.338-0.274 0.612-0.612 0.612h-3.834c-0.338 0-0.612-0.274-0.612-0.612v-6.065z"></path>
<path fill="#535fe6" style="fill: var(--color2, #535fe6)" d="M14.953 19.925c-0.338 0-0.612-0.274-0.612-0.612v-18.709h4.368c0.338 0 0.612 0.274 0.612 0.612v18.097c0 0.338-0.274 0.612-0.612 0.612h-3.756z"></path>
</symbol>
<symbol id="icon-menu" viewBox="0 0 32 32">
<path fill="#fff" style="fill: var(--color1, #fff)" d="M2.662 7.997c0-0.736 0.597-1.333 1.333-1.333h24.010c0.736 0 1.333 0.597 1.333 1.333s-0.597 1.333-1.333 1.333h-24.010c-0.736 0-1.333-0.597-1.333-1.333z"></path>
<path fill="#fff" style="fill: var(--color1, #fff)" d="M2.662 16c0-0.736 0.597-1.333 1.333-1.333h18.674c0.736 0 1.333 0.597 1.333 1.333s-0.597 1.333-1.333 1.333h-18.674c-0.736 0-1.333-0.597-1.333-1.333z"></path>
<path fill="#fff" style="fill: var(--color1, #fff)" d="M2.662 24.003c0-0.736 0.597-1.333 1.333-1.333h13.339c0.736 0 1.333 0.597 1.333 1.333s-0.597 1.333-1.333 1.333h-13.339c-0.736 0-1.333-0.597-1.333-1.333z"></path>
</symbol>
</defs>
</svg>
